<?xml version="1.0" encoding="UTF-8" standalone="no"?>
<!-- Created with Inkscape (http://www.inkscape.org/) -->

<svg
   xmlns:dc="http://purl.org/dc/elements/1.1/"
   xmlns:cc="http://creativecommons.org/ns#"
   xmlns:rdf="http://www.w3.org/1999/02/22-rdf-syntax-ns#"
   xmlns:svg="http://www.w3.org/2000/svg"
   xmlns="http://www.w3.org/2000/svg"
   version="1.1"
   width="22"
   height="22"
   id="svg2"
   xml:space="preserve"><metadata
     id="metadata10"><rdf:RDF><cc:Work
         rdf:about=""><dc:format>image/svg+xml</dc:format><dc:type
           rdf:resource="http://purl.org/dc/dcmitype/StillImage" /><dc:title></dc:title></cc:Work></rdf:RDF></metadata><defs
     id="defs6" /><path
     d="M 2.4814062,0.00252475 C 0.9056875,0.00225725 0.02045875,0.8164385 0.02031,2.4788597 l 0,17.1514773 C 0.02045875,21.184488 0.8163525,21.999196 2.3899725,22 l 17.2200525,0 c 1.574303,-8.04e-4 2.371415,-0.774941 2.369663,-2.369663 l 0,-17.1514773 c 0.0017,-1.62184745 -0.79536,-2.47660245 -2.419189,-2.47633495 0,0 -17.0854927,-0.005625 -17.0790927,0"
     id="path14"
     style="fill:#004e75;fill-opacity:1;fill-rule:nonzero;stroke:none" /><path
     d="M 18.775691,4.936146 C 19.887909,3.8240048 18.35159,2.3719585 17.255603,3.4693935 l -4.04976,4.04976 L 3.92911,5.0656772 2.3823525,6.6124347 10.028514,10.639336 6.935,13.73285 4.53105,13.43569 3.3081212,14.658618 6.0359,16.094892 7.4683638,18.822671 8.6912925,17.599742 8.4131813,15.207222 11.502885,12.117517 15.445972,19.710342 16.99273,18.167395 14.642116,9.0773397 18.775691,4.936146"
     id="path18"
     style="fill:#ffffff;fill-opacity:1;fill-rule:nonzero;stroke:none" /></svg>