<?xml version="1.0" encoding="UTF-8" standalone="no"?>
<!-- Created with Inkscape (http://www.inkscape.org/) -->

<svg
   xmlns:dc="http://purl.org/dc/elements/1.1/"
   xmlns:cc="http://creativecommons.org/ns#"
   xmlns:rdf="http://www.w3.org/1999/02/22-rdf-syntax-ns#"
   xmlns:svg="http://www.w3.org/2000/svg"
   xmlns="http://www.w3.org/2000/svg"
   xmlns:sodipodi="http://sodipodi.sourceforge.net/DTD/sodipodi-0.dtd"
   xmlns:inkscape="http://www.inkscape.org/namespaces/inkscape"
   version="1.0"
   width="21.999649"
   height="22.000805"
   id="svg2"
   inkscape:version="0.48.1 r9760"
   sodipodi:docname="oepnv_rental_car.svg">
  <metadata
     id="metadata17">
    <rdf:RDF>
      <cc:Work
         rdf:about="">
        <dc:format>image/svg+xml</dc:format>
        <dc:type
           rdf:resource="http://purl.org/dc/dcmitype/StillImage" />
      </cc:Work>
    </rdf:RDF>
  </metadata>
  <defs
     id="defs15" />
  <sodipodi:namedview
     pagecolor="#ffffff"
     bordercolor="#666666"
     borderopacity="1"
     objecttolerance="10"
     gridtolerance="10"
     guidetolerance="10"
     inkscape:pageopacity="0"
     inkscape:pageshadow="2"
     inkscape:window-width="852"
     inkscape:window-height="480"
     id="namedview13"
     showgrid="false"
     inkscape:zoom="14.408564"
     inkscape:cx="18.356561"
     inkscape:cy="14.644069"
     inkscape:window-x="7"
     inkscape:window-y="24"
     inkscape:window-maximized="0"
     inkscape:current-layer="svg2" />
  <g
     transform="translate(600.36475,-242.62487)"
     id="g2319">
    <path
       d=""
       id="path2323"
       style="fill:#ffffff;stroke:none" />
  </g>
  <g
     transform="translate(600.36475,-242.62487)"
     id="g2325">
    <path
       d=""
       id="path2329"
       style="fill:#ffffff;stroke:none" />
  </g>
  <g
     id="g3762">
    <path
       style="fill:#004e75;fill-opacity:1;stroke:none;stroke-width:0.12918966000000001;fill-rule:evenodd"
       id="path1329"
       d="m 2.5145166,0.06718609 c -1.56827679,0 -2.44986573,0.80942449 -2.44986573,2.46323201 l 0,17.0483639 c 0,1.546962 0.79273194,2.356917 2.35960493,2.356917 l 17.1500842,0 c 1.567215,0 2.361009,-0.769467 2.361009,-2.356917 l 0,-17.0483639 c 0,-1.61350863 -0.793794,-2.46323201 -2.410066,-2.46323201 -1.14e-4,0 -17.016154,-0.0054161 -17.0107664,0 z" />
    <g
       style="fill:#ffffff;fill-opacity:1;stroke:#ffffff;stroke-width:10;stroke-linecap:round;stroke-linejoin:round;stroke-miterlimit:4;stroke-opacity:1;stroke-dasharray:none"
       id="g2303"
       transform="matrix(0.04391893,0,0,0.04384282,2.9030595,1.6885857)">
      <g
         style="fill:#ffffff;fill-opacity:1;stroke:#ffffff;stroke-width:10;stroke-linecap:round;stroke-linejoin:round;stroke-miterlimit:4;stroke-opacity:1;stroke-dasharray:none"
         id="g2305">
        <path
           style="fill:#ffffff;fill-opacity:1;stroke:#ffffff;stroke-width:10.00000095;stroke-linecap:round;stroke-linejoin:round;stroke-miterlimit:4;stroke-opacity:1;stroke-dasharray:none"
           id="path2307"
           d="M 100.25,5.75 C 60.335317,5.4974281 26.826507,47.079175 35.324049,86.079571 c 5.57579,32.628219 37.203485,59.513449 70.832201,56.201679 22.48284,-1.38839 43.50902,-14.78319 54.8125,-34.09375 10.25433,-8.04484 25.57155,2.6096 35.65625,-6.0625 6.89511,-7.134767 12.65993,-16.629284 22.375,-19.84375 7.79207,2.201331 11.2873,10.646529 17.71875,14.5625 6.4579,-4.13743 10.19115,-13.979468 19.03125,-13.9375 6.25373,3.764238 10.21886,10.40689 16.125,14.34375 6.70904,-4.292637 10.68564,-14.550643 19.8125,-14.5625 6.3804,3.59771 9.90619,11.109119 16.5625,13.96875 9.26043,-8.352172 18.73735,-16.999679 26.46875,-26.9375 -0.0281,-5.622835 -7.6363,-8.738413 -10.65641,-13.336982 C 317.78098,50.838171 312.47635,40.600972 302.59375,42.71875 289.22865,43.785674 275.56059,42.397209 262.0625,42.9375 229.36594,42.923262 196.41274,43.721279 163.875,42.125 154.95723,34.457888 150.20766,22.500694 139.25,17.0625 127.86772,9.4689786 114.03062,5.323508 100.25,5.75 z M 73.09375,50.53125 c 19.527198,-0.486224 31.18454,27.24599 17,40.71875 -11.479386,12.63316 -36.049436,8.571659 -40.875,-8.375 -5.349057,-15.155352 7.109688,-34.021744 23.875,-32.34375 z" />
        <path
           style="fill:#ffffff;fill-opacity:1;stroke:#ffffff;stroke-width:10;stroke-linecap:round;stroke-linejoin:round;stroke-miterlimit:4;stroke-opacity:1;stroke-dasharray:none"
           id="path2309"
           d="" />
      </g>
    </g>
    <path
       style="fill:#ffffff;stroke:none"
       id="path2301"
       d="m 8.4127786,10.322829 c -0.757715,0 -1.1596659,0.38746 -1.3452307,0.840995 L 6.082516,13.546152 c -0.3904848,0.0469 -1.0826954,0.476221 -1.0826954,1.289526 l 0,3.02955 0.9587788,0 0,0.968866 c 0,1.19199 1.8009908,1.177951 1.8009914,0 l 0,-0.968866 3.2396842,0 0.0011,0 3.239683,0 0,0.968866 c 0,1.177951 1.800983,1.19199 1.800994,0 l 0,-0.968866 0.958776,0 0,-3.02955 c 0,-0.813305 -0.692206,-1.242627 -1.082697,-1.289526 L 14.93101,11.163824 c -0.185564,-0.453535 -0.587511,-0.840995 -1.345231,-0.840995 l -1.392484,0 -2.3712216,0 -1.4092868,0 z m -0.011552,0.867554 2.5959484,0 0.0021,0 0.0011,0 2.596997,0 c 0.32472,0.0028 0.463793,0.19304 0.556575,0.456398 l 0.742447,1.874781 -3.896019,0 -0.0011,0 -0.0021,0 -3.894972,0 0.7424492,-1.874781 c 0.092783,-0.263358 0.2318206,-0.453567 0.5565744,-0.456398 z m -1.5132522,3.242995 c 0.4594744,0 0.8317114,0.359076 0.8317114,0.802634 -3e-7,0.443588 -0.372237,0.803617 -0.8317114,0.803617 -0.4594408,0 -0.8317119,-0.360029 -0.8317119,-0.803617 0,-0.443558 0.3722711,-0.802634 0.8317119,-0.802634 z m 8.2236526,0 c 0.459475,0 0.831714,0.359076 0.831711,0.802634 0,0.443588 -0.372236,0.803617 -0.831711,0.803617 -0.459441,0 -0.832764,-0.360029 -0.832764,-0.803617 0,-0.443558 0.373323,-0.802634 0.832764,-0.802634 z" />
  </g>
</svg>
