<?xml version="1.0" encoding="UTF-8" standalone="no"?>
<!-- Created with Inkscape (http://www.inkscape.org/) -->

<svg
   xmlns:dc="http://purl.org/dc/elements/1.1/"
   xmlns:cc="http://creativecommons.org/ns#"
   xmlns:rdf="http://www.w3.org/1999/02/22-rdf-syntax-ns#"
   xmlns:svg="http://www.w3.org/2000/svg"
   xmlns="http://www.w3.org/2000/svg"
   version="1.0"
   width="21.999649"
   height="22.000805"
   id="svg2">
  <g
     transform="translate(600.36475,-242.62487)"
     id="g2319">
    <path
       d=""
       id="path2323"
       style="fill:#ffffff;stroke:none" />
  </g>
  <g
     transform="translate(600.36475,-242.62487)"
     id="g2325">
    <path
       d=""
       id="path2329"
       style="fill:#ffffff;stroke:none" />
  </g>
  <g
     transform="matrix(0.03794065,0,0,0.0378749,0,2.2326801e-4)"
     id="g3834">
    <path
       d="M 66.275,1.768 C 24.94,1.768 1.704,23.139 1.704,66.804 l 0,450.123 c 0,40.844 20.894,62.229 62.192,62.229 l 452.024,0 c 41.307,0 62.229,-20.316 62.229,-62.229 l 0,-450.123 c 0,-42.601 -20.922,-65.036 -63.522,-65.036 -0.003,0 -448.494,-0.143 -448.352,0 z"
       id="path1329"
       style="fill:#004e75;fill-opacity:1;stroke:#eeeeee;stroke-width:3.40799999" />
    <g
       transform="translate(-12.51126,-134.23929)"
       id="g3324">
      <path
         d="m 269.59375,90.625 c -7.5,0 -12.12499,4.312502 -12.125,12.8125 l 0,21.25 -45.53125,0 c -24.5,0 -37.49999,13.25 -43.5,28.75 l -31.875,81.40625 c -12.626,1.603 -34.96875,16.26649 -34.96875,44.0625 l 0,103.5625 31,0 0,33.09375 c 0,40.736 58.21874,40.25699 58.21875,0 l 0,-33.09375 104.75,0 0.0625,0 104.71875,0 0,33.09375 c 0,40.257 58.24999,40.73599 58.25,0 l 0,-33.09375 30.96875,0 0,-103.5625 c 0,-27.796 -22.374,-42.4595 -35,-44.0625 l -31.875,-81.40625 c -6,-15.5 -19.00001,-28.75 -43.5,-28.75 l -45,0 0,-21.25 c 0,-8.5 -4.625,-12.812503 -12.125,-12.8125 l -26.4375,0 -0.0625,0 -25.96875,0 z m -58.03125,63.71875 83.9375,0 0.0625,0 0.0625,0 83.9375,0 c 10.49999,0.097 15,6.59375 18,15.59375 l 24,62.96875 -125.9375,0 -0.0625,0 -0.0625,0 -125.9375,0 24,-62.96875 c 3,-9 7.5,-15.49675 18,-15.59375 z m -48.9375,109.9375 c 14.85499,0 26.90625,12.2785 26.90625,27.4375 0,15.15899 -12.05125,27.46875 -26.90625,27.46875 -14.85701,10e-6 -26.90625,-12.30975 -26.90625,-27.46875 0,-15.15901 12.04925,-27.4375 26.90625,-27.4375 z m 265.875,0 c 14.855,0 26.90624,12.27849 26.90625,27.4375 0,15.159 -12.05124,27.46876 -26.90625,27.46875 -14.856,0 -26.87498,-12.30976 -26.875,-27.46875 0,-15.159 12.01901,-27.4375 26.875,-27.4375 z"
         transform="translate(10.51126,70.239291)"
         id="path3326"
         style="fill:#ffffff;stroke:none" />
      <g
         id="g3328">
        <g
           id="g3332">
          <g
             id="g3334">
            <path
               d=""
               id="path3338"
               style="fill:#000000;stroke:none" />
          </g>
          <g
             id="g3340">
            <path
               d=""
               id="path3344"
               style="fill:#000000;stroke:none" />
          </g>
        </g>
      </g>
    </g>
    <path
       d="m 104.96867,426.89746 96.82032,0 0,25.45313 -32.48438,0 0,77.625 -31.85156,0 0,-77.625 -32.48438,0 0,-25.45313 z m 174.72657,86.0625 -36.28125,0 -4.99219,17.01563 -32.55469,0 38.74219,-103.07813 34.73437,0 38.74219,103.07813 -33.32812,0 -5.0625,-17.01563 z m -6.67969,-22.28906 -11.39063,-37.05469 -11.32031,37.05469 22.71094,0 z m 48.09375,-63.77344 35.08594,0 18.28125,31.71094 17.71875,-31.71094 34.73437,0 -32.0625,49.92188 35.08594,53.15625 -35.78906,0 -20.32032,-33.11719 -20.39062,33.11719 -35.57813,0 35.57813,-53.71875 -32.34375,-49.35938 z m 120.30469,0 31.92187,0 0,103.07813 -31.92187,0 0,-103.07813 z"
       id="text3390"
       style="font-size:144px;font-style:normal;font-variant:normal;font-weight:normal;font-stretch:normal;text-align:start;line-height:125%;writing-mode:lr-tb;text-anchor:start;fill:#ffffff;fill-opacity:1;stroke:none;font-family:Arial Black;-inkscape-font-specification:Arial Black" />
  </g>
</svg>
