<?xml version="1.0" encoding="UTF-8" standalone="no"?>
<!-- Created with Inkscape (http://www.inkscape.org/) -->

<svg
   xmlns:dc="http://purl.org/dc/elements/1.1/"
   xmlns:cc="http://creativecommons.org/ns#"
   xmlns:rdf="http://www.w3.org/1999/02/22-rdf-syntax-ns#"
   xmlns:svg="http://www.w3.org/2000/svg"
   xmlns="http://www.w3.org/2000/svg"
   version="1.0"
   width="21.999649"
   height="22.000805"
   id="svg2">
  <g
     transform="translate(600.36475,-242.62487)"
     id="g2319">
    <path
       d=""
       id="path2323"
       style="fill:#ffffff;stroke:none" />
  </g>
  <g
     transform="translate(600.36475,-242.62487)"
     id="g2325">
    <path
       d=""
       id="path2329"
       style="fill:#ffffff;stroke:none" />
  </g>
  <path
     d="m 2.5145166,0.06718609 c -1.56827679,0 -2.44986573,0.80942449 -2.44986573,2.46323201 l 0,17.0483639 c 0,1.546962 0.79273194,2.356917 2.35960493,2.356917 l 17.1500842,0 c 1.567215,0 2.361009,-0.769467 2.361009,-2.356917 l 0,-17.0483639 c 0,-1.61350863 -0.793794,-2.46323201 -2.410066,-2.46323201 -1.14e-4,0 -17.016154,-0.0054161 -17.0107664,0 z"
     id="path1329"
     style="fill:#004e75;fill-opacity:1;stroke:#eeeeee;stroke-width:0.12918966" />
  <path
     d="m 8.4127766,10.984811 c -0.7577157,0 -1.159667,0.387459 -1.3452319,0.840995 l -0.9850331,2.382328 c -0.3904849,0.04689 -1.0826961,0.476221 -1.0826961,1.289526 l 0,3.029549 0.9587795,0 0,0.968867 c 0,1.191988 1.8009927,1.177951 1.800993,0 l 0,-0.968867 3.239688,0 0.0011,0 3.239684,0 0,0.968867 c 0,1.177951 1.800985,1.191988 1.800996,0 l 0,-0.968867 0.958778,0 0,-3.029549 c 0,-0.813304 -0.692206,-1.242628 -1.082698,-1.289526 l -0.98608,-2.382328 C 14.745491,11.37227 14.343543,10.984811 13.585822,10.984811 l -1.392485,0 -2.3712243,0 -1.4092882,0 z m -0.011553,0.867554 2.5959514,0 0.0021,0 0.0011,0 2.596999,0 c 0.32472,0.0028 0.463794,0.193039 0.556574,0.456397 l 0.74245,1.874781 -3.896023,0 -0.0011,0 -0.0021,0 -3.8949765,0 0.7424499,-1.874781 c 0.092783,-0.263358 0.2318208,-0.453566 0.5565752,-0.456397 z m -1.513254,3.242995 c 0.4594751,0 0.8317123,0.359075 0.8317123,0.802633 -4e-7,0.44359 -0.3722372,0.803618 -0.8317123,0.803618 -0.4594414,0 -0.8317125,-0.360029 -0.8317125,-0.803618 0,-0.443557 0.3722711,-0.802633 0.8317125,-0.802633 z m 8.2236604,0 c 0.459475,0 0.831716,0.359076 0.831712,0.802633 0,0.443589 -0.372237,0.803618 -0.831712,0.803618 -0.45944,0 -0.832763,-0.360028 -0.832763,-0.803618 0,-0.443558 0.373323,-0.802633 0.832763,-0.802633 z"
     id="path2301"
     style="fill:#ffffff;stroke:none" />
  <path
     d="M 6.4426373,0.79696455 C 6.0368571,0.79697959 5.6837822,0.94366067 5.3832065,1.2361351 5.0826581,1.5286379 4.9320656,1.8840893 4.9320508,2.3038128 c 1.44e-5,0.4202085 0.1506073,0.7774422 0.4511557,1.0699183 0.3005757,0.2925003 0.6536506,0.4380623 1.0594308,0.4380502 0.014962,0 0.030091,-7.575e-4 0.044891,-0.00112 0.014968,4.129e-4 0.029758,0.00113 0.044891,0.00112 C 6.9381998,3.8117934 7.2912759,3.6662314 7.5918508,3.3737311 7.8923996,3.081255 8.0418702,2.7240213 8.0418842,2.3038128 8.0418706,1.8840893 7.8923996,1.5286379 7.5918508,1.2361351 7.2912759,0.94366067 6.9381998,0.79697959 6.5324193,0.79696455 c -0.015129,3.4e-7 -0.029928,7.4197e-4 -0.044891,0.001118 -0.014797,-3.5982e-4 -0.029933,-0.001118 -0.044891,-0.001118 z M 5.2934241,4.1490016 c -0.091782,2.6e-6 -0.1747243,0.010263 -0.2491456,0.030249 A 1.2872472,1.2850164 0 0 0 4.89726,4.173649 1.2872472,1.2850164 0 0 0 3.6414305,5.4878005 l 0.026935,2.9968916 a 1.2872472,1.2850164 0 0 0 0.9045563,1.2502921 l 0,0.3753118 0,0.114274 1.9146066,-0.05602 1.9157296,0.05602 0,-0.114274 0,-0.4324487 A 1.2872472,1.2850164 0 0 0 9.1574289,8.4611654 L 9.1304944,5.4642734 A 1.2872472,1.2850164 0 0 0 7.9206783,4.17701 C 7.8490429,4.1589013 7.7701211,4.1490038 7.6827555,4.1490016 l -2.3893314,0 z"
     id="path8791-2"
     style="font-size:40px;font-style:normal;font-variant:normal;font-weight:normal;font-stretch:normal;text-align:start;line-height:125%;writing-mode:lr-tb;text-anchor:start;fill:#ffffff;fill-opacity:1;stroke:#ffffff;stroke-width:0.05888891;stroke-linecap:round;stroke-linejoin:round;stroke-opacity:1;font-family:NPSPICT3;-inkscape-font-specification:NPSPICT3" />
  <path
     d="m 15.093105,0.79696455 c -0.40578,1.504e-5 -0.758855,0.14669612 -1.05943,0.43917055 -0.300549,0.2925028 -0.451141,0.6479542 -0.451156,1.0676777 1.4e-5,0.4202085 0.150607,0.7774422 0.451156,1.0699183 0.300575,0.2925003 0.65365,0.4380623 1.05943,0.4380502 0.01496,0 0.03009,-7.575e-4 0.04489,-0.00112 0.01497,4.129e-4 0.02976,0.00113 0.04489,0.00112 0.405781,1.21e-5 0.758857,-0.1455499 1.059432,-0.4380502 C 16.542868,3.081255 16.692338,2.7240213 16.692352,2.3038128 16.692339,1.8840893 16.542868,1.5286379 16.242319,1.2361351 15.941744,0.94366067 15.588668,0.79697959 15.182887,0.79696455 c -0.01513,3.4e-7 -0.02993,7.4197e-4 -0.04489,0.001118 -0.0148,-3.5982e-4 -0.02993,-0.001118 -0.04489,-0.001118 z M 13.943892,4.1490016 c -0.09178,2.6e-6 -0.174724,0.010263 -0.249145,0.030249 a 1.2872472,1.2850164 0 0 0 -0.147019,-0.0056 1.2872472,1.2850164 0 0 0 -1.255829,1.3141515 l 0.02693,2.9968916 a 1.2872472,1.2850164 0 0 0 0.904556,1.2502921 l 0,0.3753122 0,0.114274 1.914606,-0.05602 1.91573,0.05602 0,-0.114274 0,-0.4324491 A 1.2872472,1.2850164 0 0 0 17.807892,8.461167 L 17.780962,5.464275 A 1.2872472,1.2850164 0 0 0 16.571146,4.17701 C 16.499506,4.158901 16.420589,4.149004 16.333224,4.149002 l -2.389332,0 z"
     id="path20631"
     style="font-size:40px;font-style:normal;font-variant:normal;font-weight:normal;font-stretch:normal;text-align:start;line-height:125%;writing-mode:lr-tb;text-anchor:start;fill:#ffffff;fill-opacity:1;stroke:#ffffff;stroke-width:0.05888891;stroke-linecap:round;stroke-linejoin:round;stroke-opacity:1;font-family:NPSPICT3;-inkscape-font-specification:NPSPICT3" />
</svg>
