<?xml version="1.0" encoding="UTF-8" standalone="no"?>
<!-- Created with Inkscape (http://www.inkscape.org/) -->

<svg
   xmlns:dc="http://purl.org/dc/elements/1.1/"
   xmlns:cc="http://creativecommons.org/ns#"
   xmlns:rdf="http://www.w3.org/1999/02/22-rdf-syntax-ns#"
   xmlns:svg="http://www.w3.org/2000/svg"
   xmlns="http://www.w3.org/2000/svg"
   version="1.0"
   width="21.999649"
   height="22.000805"
   id="svg2">
  <g
     transform="translate(600.36475,-242.62487)"
     id="g2319">
    <path
       d=""
       id="path2323"
       style="fill:#ffffff;stroke:none" />
  </g>
  <g
     transform="translate(600.36475,-242.62487)"
     id="g2325">
    <path
       d=""
       id="path2329"
       style="fill:#ffffff;stroke:none" />
  </g>
  <path
     d="m 2.5145166,0.06718609 c -1.56827679,0 -2.44986573,0.80942449 -2.44986573,2.46323201 l 0,17.0483639 c 0,1.546962 0.79273194,2.356917 2.35960493,2.356917 l 17.1500842,0 c 1.567215,0 2.361009,-0.769467 2.361009,-2.356917 l 0,-17.0483639 c 0,-1.61350863 -0.793794,-2.46323201 -2.410066,-2.46323201 -1.14e-4,0 -17.016154,-0.0054161 -17.0107664,0 z"
     id="path1329"
     style="fill:#004e75;fill-opacity:1;stroke:#eeeeee;stroke-width:0.12918966" />
  <g
     transform="matrix(0.90497668,0,0,0.92767993,1.0178396,0.65911999)"
     id="g3822">
    <path
       d="m 278.91286,461.96271 a 78.380615,78.380615 0 1 1 -156.76123,0 78.380615,78.380615 0 1 1 156.76123,0 z"
       transform="matrix(-0.03958894,0,0,0.03952034,12.269083,-0.6784635)"
       id="path596"
       style="font-size:12px;fill:none;stroke:#ffffff;stroke-width:26;stroke-opacity:1" />
    <path
       d="m 278.91286,461.96271 a 78.380615,78.380615 0 1 1 -156.76123,0 78.380615,78.380615 0 1 1 156.76123,0 z"
       transform="matrix(-0.03958894,0,0,0.03952034,25.567687,-0.73880845)"
       id="path595"
       style="font-size:12px;fill:none;stroke:#ffffff;stroke-width:26;stroke-opacity:1" />
    <path
       d="m 15.170603,12.248121 -7.9791596,0.04023 -2.8209135,5.229763 5.400037,0 5.6418291,-3.82175"
       id="path594"
       style="font-size:12px;fill:none;stroke:#ffffff;stroke-width:0.82570279;stroke-linejoin:round;stroke-opacity:1" />
    <path
       d="m 14.863993,9.1139287 c 0.433415,0 0.761018,-0.00965 1.096808,0.5024461 0.09666,0.1707113 0.140849,0.3791486 0.105159,0.5866302 -0.04282,0.235927 -0.182734,0.467721 -0.347682,0.604939 -0.218419,0.1817 -0.425704,0.167683 -0.392204,0.331022 0.04298,0.209583 0.174162,0.500826 0.315922,0.973745 0.143898,0.480045 0.314767,1.067574 0.482491,1.64627 0.167723,0.578694 0.332367,1.148867 0.462695,1.593163 0.06517,0.222147 0.122076,0.412898 0.16578,0.555755 0.04258,0.139184 0.08017,0.247299 0.0767,0.239591 0.135783,0.238486 0.154265,0.393881 0.382014,0.596865 0.255358,0.223098 0.463267,0.387911 0.535423,0.438256 0.183273,0.132906 0.268475,0.413386 0.171694,0.551973 -0.121968,0.188873 -0.373863,0.217845 -0.557965,0.16134 -0.17481,-0.0554 -0.451532,-0.150551 -0.77241,-0.415858 l -0.0025,-0.0037 -0.0037,-0.0025 c -0.446484,-0.382305 -0.611664,-0.846304 -0.628473,-0.87315 l -0.02351,-0.03582 -0.01608,-0.03952 c -0.03867,-0.09504 -0.06184,-0.17887 -0.107615,-0.328484 -0.04577,-0.149614 -0.103793,-0.342903 -0.169491,-0.56687 C 15.505655,15.18209 15.341846,14.61105 15.174354,14.033154 15.006861,13.45526 14.83641,12.870722 14.694338,12.396766 14.552265,11.92281 14.462509,11.533553 14.42933,11.450747 c -0.08076,-0.201541 -0.122014,-0.419122 -0.06681,-0.637266 0.05521,-0.218143 0.220177,-0.394203 0.368265,-0.43513 0.338022,-0.0944 0.248333,-0.337119 0.0754,-0.337471 l -1.449192,-0.0029 -0.0036,-0.9239847 c 9e-6,-2e-5 0.940666,-2e-5 1.510575,-2e-5 z"
       id="path593"
       style="font-size:12px;fill:#ffffff;fill-opacity:1;fill-rule:evenodd;stroke-width:25;stroke-linecap:round" />
    <path
       d="M 9.6671725,17.354368 6.9316001,10.669521"
       id="path599"
       style="font-size:12px;fill:#ffffff;fill-opacity:1;fill-rule:evenodd;stroke:#ffffff;stroke-width:0.98886561;stroke-opacity:1" />
    <path
       d="M 10.607577,15.647522 8.9547332,19.487908"
       id="path600"
       style="font-size:12px;fill:#ffffff;fill-opacity:1;fill-rule:evenodd;stroke:#ffffff;stroke-width:0.36093599;stroke-linecap:round;stroke-opacity:1" />
    <path
       d="m 278.91286,461.96271 a 78.380615,78.380615 0 1 1 -156.76123,0 78.380615,78.380615 0 1 1 156.76123,0 z"
       transform="matrix(-0.01116229,0,0,0.00984191,11.978747,12.981546)"
       id="path597"
       style="font-size:12px;fill:#ffffff;fill-opacity:1;fill-rule:evenodd;stroke:#ffffff;stroke-width:31.30500031;stroke-opacity:1" />
    <path
       d="m 11.343398,15.649272 -1.4600381,0.01336"
       id="path601"
       style="font-size:12px;fill:#ffffff;fill-opacity:1;fill-rule:evenodd;stroke:#ffffff;stroke-width:0.50434071;stroke-linecap:round;stroke-miterlimit:4;stroke-opacity:1;stroke-dasharray:none" />
    <path
       d="m 9.6990222,19.432743 -1.4600386,0.01336"
       id="path602"
       style="font-size:12px;fill:#ffffff;fill-opacity:1;fill-rule:evenodd;stroke:#ffffff;stroke-width:0.50432146;stroke-linecap:round;stroke-opacity:1" />
    <path
       d="m 5.5922963,10.07213 3.4337157,0 c 0.1282303,0 0.2937361,0.226437 0.1282303,0.376912 -0.1790025,0.170065 -1.7880974,0.519142 -1.7880974,0.519142 0,0 -0.4416807,0.120896 -0.6767701,0.09245 C 6.454287,11.032189 5.6421635,10.961073 5.5922963,10.07213 z"
       id="path603"
       style="font-size:12px;fill:#ffffff;fill-opacity:1;fill-rule:evenodd;stroke:none" />
  </g>
  <g
     transform="matrix(0.04391893,0,0,0.04384282,3.0247425,1.8486388)"
     id="g2303"
     style="fill:#ffffff;fill-opacity:1;stroke:#ffffff;stroke-width:10;stroke-linecap:round;stroke-linejoin:round;stroke-miterlimit:4;stroke-opacity:1;stroke-dasharray:none">
    <g
       id="g2305"
       style="fill:#ffffff;fill-opacity:1;stroke:#ffffff;stroke-width:10;stroke-linecap:round;stroke-linejoin:round;stroke-miterlimit:4;stroke-opacity:1;stroke-dasharray:none">
      <path
         d="M 100.25,5.75 C 60.335317,5.4974281 26.826507,47.079175 35.324049,86.079571 c 5.57579,32.628219 37.203485,59.513449 70.832201,56.201679 22.48284,-1.38839 43.50902,-14.78319 54.8125,-34.09375 10.25433,-8.04484 25.57155,2.6096 35.65625,-6.0625 6.89511,-7.134767 12.65993,-16.629284 22.375,-19.84375 7.79207,2.201331 11.2873,10.646529 17.71875,14.5625 6.4579,-4.13743 10.19115,-13.979468 19.03125,-13.9375 6.25373,3.764238 10.21886,10.40689 16.125,14.34375 6.70904,-4.292637 10.68564,-14.550643 19.8125,-14.5625 6.3804,3.59771 9.90619,11.109119 16.5625,13.96875 9.26043,-8.352172 18.73735,-16.999679 26.46875,-26.9375 -0.0281,-5.622835 -7.6363,-8.738413 -10.65641,-13.336982 C 317.78098,50.838171 312.47635,40.600972 302.59375,42.71875 289.22865,43.785674 275.56059,42.397209 262.0625,42.9375 229.36594,42.923262 196.41274,43.721279 163.875,42.125 154.95723,34.457888 150.20766,22.500694 139.25,17.0625 127.86772,9.4689786 114.03062,5.323508 100.25,5.75 z M 73.09375,50.53125 c 19.527198,-0.486224 31.18454,27.24599 17,40.71875 -11.479386,12.63316 -36.049436,8.571659 -40.875,-8.375 -5.349057,-15.155352 7.109688,-34.021744 23.875,-32.34375 z"
         id="path2307"
         style="fill:#ffffff;fill-opacity:1;stroke:#ffffff;stroke-width:10.00000095;stroke-linecap:round;stroke-linejoin:round;stroke-miterlimit:4;stroke-opacity:1;stroke-dasharray:none" />
      <path
         d=""
         id="path2309"
         style="fill:#ffffff;fill-opacity:1;stroke:#ffffff;stroke-width:10;stroke-linecap:round;stroke-linejoin:round;stroke-miterlimit:4;stroke-opacity:1;stroke-dasharray:none" />
    </g>
  </g>
</svg>
